HIERARCHY
ROOT mixamorig:Hips
{
	OFFSET -0.000008 104.274872 1.554316
	CHANNELS 6 Xposition Yposition Zposition Xrotation Yrotation Zrotation
	JOINT mixamorig:Spine
	{
		OFFSET -0.000005 10.181595 0.131519
		CHANNELS 6 Xposition Yposition Zposition Xrotation Yrotation Zrotation
		JOINT mixamorig:Spine1
		{
			OFFSET -0.000000 9.893959 -1.470707
			CHANNELS 6 Xposition Yposition Zposition Xrotation Yrotation Zrotation
			JOINT mixamorig:Spine2
			{
				OFFSET -0.000000 9.220757 -1.370641
				CHANNELS 6 Xposition Yposition Zposition Xrotation Yrotation Zrotation
				JOINT mixamorig:Neck
				{
					OFFSET 0.000001 16.740417 -2.049036
					CHANNELS 6 Xposition Yposition Zposition Xrotation Yrotation Zrotation
					JOINT mixamorig:Head
					{
						OFFSET 0.000000 9.617874 1.685006
						CHANNELS 6 Xposition Yposition Zposition Xrotation Yrotation Zrotation
						JOINT mixamorig:HeadTop_End
						{
							OFFSET 0.000002 22.037354 7.501101
							CHANNELS 6 Xposition Yposition Zposition Xrotation Yrotation Zrotation
							End Site
							{
								OFFSET 0.000168 2310.654297 -282.823242
							}
						}
					}
				}
				JOINT mixamorig:RightShoulder
				{
					OFFSET -4.569970 11.014908 -2.160885
					CHANNELS 6 Xposition Yposition Zposition Xrotation Yrotation Zrotation
					JOINT mixamorig:RightArm
					{
						OFFSET -10.592851 -0.524811 -2.232101
						CHANNELS 6 Xposition Yposition Zposition Xrotation Yrotation Zrotation
						JOINT mixamorig:RightForeArm
						{
							OFFSET -27.841511 0.000031 -0.000004
							CHANNELS 6 Xposition Yposition Zposition Xrotation Yrotation Zrotation
							JOINT mixamorig:RightHand
							{
								OFFSET -28.328831 -0.000015 0.000015
								CHANNELS 6 Xposition Yposition Zposition Xrotation Yrotation Zrotation
								JOINT mixamorig:RightHandThumb1
								{
									OFFSET -2.464806 -1.573990 2.681852
									CHANNELS 6 Xposition Yposition Zposition Xrotation Yrotation Zrotation
									JOINT mixamorig:RightHandThumb2
									{
										OFFSET -3.215179 -1.872803 1.924282
										CHANNELS 6 Xposition Yposition Zposition Xrotation Yrotation Zrotation
										JOINT mixamorig:RightHandThumb3
										{
											OFFSET -2.654831 -1.527969 1.512609
											CHANNELS 6 Xposition Yposition Zposition Xrotation Yrotation Zrotation
											JOINT mixamorig:RightHandThumb4
											{
												OFFSET -2.018814 -1.152008 1.108052
												CHANNELS 6 Xposition Yposition Zposition Xrotation Yrotation Zrotation
												End Site
												{
													OFFSET -188.809540 -114.533607 132.431396
												}
											}
										}
									}
								}
								JOINT mixamorig:RightHandIndex1
								{
									OFFSET -9.108284 -0.517868 2.259835
									CHANNELS 6 Xposition Yposition Zposition Xrotation Yrotation Zrotation
									JOINT mixamorig:RightHandIndex2
									{
										OFFSET -3.699989 0.000000 0.001215
										CHANNELS 6 Xposition Yposition Zposition Xrotation Yrotation Zrotation
										JOINT mixamorig:RightHandIndex3
										{
											OFFSET -2.850006 0.000031 -0.000522
											CHANNELS 6 Xposition Yposition Zposition Xrotation Yrotation Zrotation
											JOINT mixamorig:RightHandIndex4
											{
												OFFSET -2.772186 -0.000015 -0.000020
												CHANNELS 6 Xposition Yposition Zposition Xrotation Yrotation Zrotation
												End Site
												{
													OFFSET -277.218445 0.000000 -0.050231
												}
											}
										}
									}
								}
								JOINT mixamorig:RightHandMiddle1
								{
									OFFSET -9.532516 -0.000031 -0.000023
									CHANNELS 6 Xposition Yposition Zposition Xrotation Yrotation Zrotation
									JOINT mixamorig:RightHandMiddle2
									{
										OFFSET -3.700005 -0.000015 0.003713
										CHANNELS 6 Xposition Yposition Zposition Xrotation Yrotation Zrotation
										JOINT mixamorig:RightHandMiddle3
										{
											OFFSET -2.949974 0.000015 -0.002054
											CHANNELS 6 Xposition Yposition Zposition Xrotation Yrotation Zrotation
											JOINT mixamorig:RightHandMiddle4
											{
												OFFSET -2.946640 0.000000 -0.000156
												CHANNELS 6 Xposition Yposition Zposition Xrotation Yrotation Zrotation
												End Site
												{
													OFFSET -294.664337 0.000000 -0.113670
												}
											}
										}
									}
								}
								JOINT mixamorig:RightHandRing1
								{
									OFFSET -9.103600 -0.043076 -1.865134
									CHANNELS 6 Xposition Yposition Zposition Xrotation Yrotation Zrotation
									JOINT mixamorig:RightHandRing2
									{
										OFFSET -3.379288 0.000000 -0.001055
										CHANNELS 6 Xposition Yposition Zposition Xrotation Yrotation Zrotation
										JOINT mixamorig:RightHandRing3
										{
											OFFSET -2.889687 -0.000015 0.000379
											CHANNELS 6 Xposition Yposition Zposition Xrotation Yrotation Zrotation
											JOINT mixamorig:RightHandRing4
											{
												OFFSET -2.638809 -0.000015 0.000941
												CHANNELS 6 Xposition Yposition Zposition Xrotation Yrotation Zrotation
												End Site
												{
													OFFSET -263.880371 0.000000 0.516020
												}
											}
										}
									}
								}
								JOINT mixamorig:RightHandPinky1
								{
									OFFSET -8.076683 -0.486710 -3.806280
									CHANNELS 6 Xposition Yposition Zposition Xrotation Yrotation Zrotation
									JOINT mixamorig:RightHandPinky2
									{
										OFFSET -3.600014 -0.000015 -0.003747
										CHANNELS 6 Xposition Yposition Zposition Xrotation Yrotation Zrotation
										JOINT mixamorig:RightHandPinky3
										{
											OFFSET -2.099983 0.000000 -0.005739
											CHANNELS 6 Xposition Yposition Zposition Xrotation Yrotation Zrotation
											JOINT mixamorig:RightHandPinky4
											{
												OFFSET -2.115768 -0.000031 -0.003680
												CHANNELS 6 Xposition Yposition Zposition Xrotation Yrotation Zrotation
												End Site
												{
													OFFSET -211.577087 0.000000 -0.350686
												}
											}
										}
									}
								}
							}
						}
					}
				}
				JOINT mixamorig:LeftShoulder
				{
					OFFSET 4.570447 11.014725 -2.160855
					CHANNELS 6 Xposition Yposition Zposition Xrotation Yrotation Zrotation
					JOINT mixamorig:LeftArm
					{
						OFFSET 10.592371 -0.524597 -2.232119
						CHANNELS 6 Xposition Yposition Zposition Xrotation Yrotation Zrotation
						JOINT mixamorig:LeftForeArm
						{
							OFFSET 27.841532 -0.000031 0.000026
							CHANNELS 6 Xposition Yposition Zposition Xrotation Yrotation Zrotation
							JOINT mixamorig:LeftHand
							{
								OFFSET 28.328846 -0.000061 0.000022
								CHANNELS 6 Xposition Yposition Zposition Xrotation Yrotation Zrotation
								JOINT mixamorig:LeftHandThumb1
								{
									OFFSET 2.466141 -1.576172 2.681732
									CHANNELS 6 Xposition Yposition Zposition Xrotation Yrotation Zrotation
									JOINT mixamorig:LeftHandThumb2
									{
										OFFSET 3.217812 -1.872070 1.916482
										CHANNELS 6 Xposition Yposition Zposition Xrotation Yrotation Zrotation
										JOINT mixamorig:LeftHandThumb3
										{
											OFFSET 2.656029 -1.528778 1.514513
											CHANNELS 6 Xposition Yposition Zposition Xrotation Yrotation Zrotation
											JOINT mixamorig:LeftHandThumb4
											{
												OFFSET 2.020889 -1.154053 1.115139
												CHANNELS 6 Xposition Yposition Zposition Xrotation Yrotation Zrotation
												End Site
												{
													OFFSET 190.885437 -115.081749 130.048782
												}
											}
										}
									}
								}
								JOINT mixamorig:LeftHandIndex1
								{
									OFFSET 9.109314 -0.518021 2.259871
									CHANNELS 6 Xposition Yposition Zposition Xrotation Yrotation Zrotation
									JOINT mixamorig:LeftHandIndex2
									{
										OFFSET 3.699989 0.000000 -0.000322
										CHANNELS 6 Xposition Yposition Zposition Xrotation Yrotation Zrotation
										JOINT mixamorig:LeftHandIndex3
										{
											OFFSET 2.850006 0.000000 0.000352
											CHANNELS 6 Xposition Yposition Zposition Xrotation Yrotation Zrotation
											JOINT mixamorig:LeftHandIndex4
											{
												OFFSET 2.774864 -0.000031 -0.000027
												CHANNELS 6 Xposition Yposition Zposition Xrotation Yrotation Zrotation
												End Site
												{
													OFFSET 277.486267 0.000000 -0.009857
												}
											}
										}
									}
								}
								JOINT mixamorig:LeftHandMiddle1
								{
									OFFSET 9.533394 0.000061 0.000044
									CHANNELS 6 Xposition Yposition Zposition Xrotation Yrotation Zrotation
									JOINT mixamorig:LeftHandMiddle2
									{
										OFFSET 3.699989 -0.000015 -0.000231
										CHANNELS 6 Xposition Yposition Zposition Xrotation Yrotation Zrotation
										JOINT mixamorig:LeftHandMiddle3
										{
											OFFSET 2.949997 -0.000015 -0.000059
											CHANNELS 6 Xposition Yposition Zposition Xrotation Yrotation Zrotation
											JOINT mixamorig:LeftHandMiddle4
											{
												OFFSET 2.952896 0.000031 0.000063
												CHANNELS 6 Xposition Yposition Zposition Xrotation Yrotation Zrotation
												End Site
												{
													OFFSET 295.289337 0.000000 0.022810
												}
											}
										}
									}
								}
								JOINT mixamorig:LeftHandRing1
								{
									OFFSET 9.104523 -0.042999 -1.865074
									CHANNELS 6 Xposition Yposition Zposition Xrotation Yrotation Zrotation
									JOINT mixamorig:LeftHandRing2
									{
										OFFSET 3.150009 -0.000031 0.000043
										CHANNELS 6 Xposition Yposition Zposition Xrotation Yrotation Zrotation
										JOINT mixamorig:LeftHandRing3
										{
											OFFSET 2.949982 -0.000015 0.000040
											CHANNELS 6 Xposition Yposition Zposition Xrotation Yrotation Zrotation
											JOINT mixamorig:LeftHandRing4
											{
												OFFSET 2.644348 0.000000 0.000057
												CHANNELS 6 Xposition Yposition Zposition Xrotation Yrotation Zrotation
												End Site
												{
													OFFSET 264.434631 0.000000 0.012105
												}
											}
										}
									}
								}
								JOINT mixamorig:LeftHandPinky1
								{
									OFFSET 8.077789 -0.486847 -3.806259
									CHANNELS 6 Xposition Yposition Zposition Xrotation Yrotation Zrotation
									JOINT mixamorig:LeftHandPinky2
									{
										OFFSET 3.599953 0.000031 0.014727
										CHANNELS 6 Xposition Yposition Zposition Xrotation Yrotation Zrotation
										JOINT mixamorig:LeftHandPinky3
										{
											OFFSET 2.100021 0.000015 0.007705
											CHANNELS 6 Xposition Yposition Zposition Xrotation Yrotation Zrotation
											JOINT mixamorig:LeftHandPinky4
											{
												OFFSET 2.125504 0.000031 0.007517
												CHANNELS 6 Xposition Yposition Zposition Xrotation Yrotation Zrotation
												End Site
												{
													OFFSET 212.550781 0.000000 0.625752
												}
											}
										}
									}
								}
							}
						}
					}
				}
			}
		}
	}
	JOINT mixamorig:RightUpLeg
	{
		OFFSET -8.207787 -6.751648 -1.599560
		CHANNELS 6 Xposition Yposition Zposition Xrotation Yrotation Zrotation
		JOINT mixamorig:RightLeg
		{
			OFFSET -0.000002 -44.370117 0.345942
			CHANNELS 6 Xposition Yposition Zposition Xrotation Yrotation Zrotation
			JOINT mixamorig:RightFoot
			{
				OFFSET 0.000003 -44.423679 -3.043532
				CHANNELS 6 Xposition Yposition Zposition Xrotation Yrotation Zrotation
				JOINT mixamorig:RightToeBase
				{
					OFFSET -0.000002 -8.728671 10.710558
					CHANNELS 6 Xposition Yposition Zposition Xrotation Yrotation Zrotation
					JOINT mixamorig:RightToe_End
					{
						OFFSET -0.000001 -0.000679 9.278119
						CHANNELS 6 Xposition Yposition Zposition Xrotation Yrotation Zrotation
						End Site
						{
							OFFSET 0.000000 -0.067690 927.812134
						}
					}
				}
			}
		}
	}
	JOINT mixamorig:LeftUpLeg
	{
		OFFSET 8.207793 -6.751686 -1.599556
		CHANNELS 6 Xposition Yposition Zposition Xrotation Yrotation Zrotation
		JOINT mixamorig:LeftLeg
		{
			OFFSET -0.000004 -44.370014 0.346954
			CHANNELS 6 Xposition Yposition Zposition Xrotation Yrotation Zrotation
			JOINT mixamorig:LeftFoot
			{
				OFFSET -0.000001 -44.423672 -3.044401
				CHANNELS 6 Xposition Yposition Zposition Xrotation Yrotation Zrotation
				JOINT mixamorig:LeftToeBase
				{
					OFFSET -0.000002 -8.728669 10.710558
					CHANNELS 6 Xposition Yposition Zposition Xrotation Yrotation Zrotation
					JOINT mixamorig:LeftToe_End
					{
						OFFSET -0.000003 -0.000679 9.278133
						CHANNELS 6 Xposition Yposition Zposition Xrotation Yrotation Zrotation
						End Site
						{
							OFFSET 0.000000 -0.068021 927.813477
						}
					}
				}
			}
		}
	}
}
MOTION
Frames: 3
Frame Time: 0.033333
0.000006 104.270477 1.554256 0.000010 0.000003 -0.000113 -0.000005 10.181587 0.131522 0.000001 -0.000003 0.000084 -0.000000 9.893967 -1.470711 0.000001 0.000000 -0.000000 -0.000000 9.220802 -1.370642 0.000000 -0.000000 -0.000000 0.000001 16.740433 -2.049030 0.000000 -0.000000 -0.000000 0.000000 9.617859 1.685014 0.000000 0.000000 0.000000 0.000002 22.037384 7.501101 0.000000 -0.000000 0.000000 -4.569968 11.014880 -2.160881 0.000008 0.000001 -0.000038 -10.592774 -0.524817 -2.231732 37.046786 74.937140 -28.804742 -27.841461 0.000033 0.000600 12.854796 106.921052 -17.288044 -28.328829 0.000052 0.000027 -0.000321 -0.000045 0.000007 -2.464481 -1.573632 2.682231 -59.657010 -177.527217 -50.195812 -3.215225 -1.872490 1.924607 142.387437 32.172660 32.818448 -2.654894 -1.527713 1.512974 142.652872 32.390195 41.459187 -2.018827 -1.151997 1.108058 -0.000005 -0.000002 0.000005 -9.108387 -0.517561 2.260221 120.370582 14.527814 -25.160368 -3.700068 0.000268 0.001613 117.862045 15.175651 -24.895066 -2.850112 0.000355 -0.000163 117.777555 12.517315 -20.597542 -2.772173 -0.000000 -0.000016 0.000000 -0.000000 0.000001 -9.532566 0.000293 0.000344 118.425686 11.832985 -19.963345 -3.700075 0.000299 0.004084 118.198541 12.761793 -21.007568 -2.950075 0.000335 -0.001715 116.857625 12.101750 -19.562553 -2.946632 0.000000 -0.000148 -0.000001 -0.000000 -0.000000 -9.103680 -0.042735 -1.864775 115.465523 13.547264 -21.240048 -3.379338 0.000278 -0.000696 115.277693 11.936707 -18.765298 -2.889777 0.000312 0.000732 115.994097 10.762543 -17.220292 -2.638802 0.000001 0.000940 0.000000 0.000000 0.000000 -8.076734 -0.486343 -3.805956 102.991931 13.883627 -17.219658 -3.600046 0.000290 -0.003498 98.665675 8.954580 -9.999719 -2.100025 0.000290 -0.005462 98.468385 7.820921 -8.804706 -2.115768 -0.000026 -0.003692 -0.000003 0.000002 -0.000003 4.570446 11.014691 -2.160851 -0.000018 0.000010 -0.000021 10.592485 -0.524573 -2.232350 29.183537 -70.708085 20.928261 27.841801 -0.000024 -0.000142 186.402023 -80.762342 187.524469 28.328833 -0.000029 0.000021 0.000021 -0.000089 -0.000000 2.466066 -1.576215 2.681878 -4.949971 124.418781 -47.471003 3.217444 -1.871931 1.916540 127.341364 11.831317 -150.334212 2.655657 -1.528566 1.514572 125.583273 -7.981319 -121.443099 2.020886 -1.154055 1.115140 0.000002 0.000005 0.000008 9.109409 -0.517765 2.259781 127.789875 -12.679918 25.526603 3.700087 0.000294 -0.000404 129.568607 -9.835356 20.744558 2.850061 0.000314 0.000253 130.481407 -7.516997 16.210315 2.774882 -0.000033 -0.000024 0.000001 0.000000 0.000002 9.533495 0.000312 -0.000038 130.528480 -11.187021 23.983984 3.700068 0.000296 -0.000324 132.922708 -7.409463 16.903222 2.950070 0.000306 -0.000131 134.503691 -7.515489 17.811834 2.952875 0.000002 0.000056 0.000001 -0.000001 -0.000001 9.104597 -0.042727 -1.865158 131.458684 -9.077300 19.973150 3.150049 0.000295 -0.000023 135.895698 -6.299353 15.475948 2.950038 0.000301 -0.000030 140.034683 -6.684371 18.252217 2.644310 0.000046 0.000036 -0.000002 0.000001 -0.000000 8.077859 -0.486587 -3.806352 130.330009 -9.841124 22.279777 3.600025 0.000344 0.014648 134.325533 -6.210228 15.820692 2.100057 0.000360 0.007636 137.007188 -4.884897 13.513533 2.125504 -0.000017 0.007515 0.000002 -0.000000 0.000000 -8.207786 -6.751667 -1.599560 -0.077001 -0.000003 0.000080 -0.000002 -44.370110 0.345938 0.153719 -0.000000 -0.000000 0.000000 -44.423679 -3.043532 -0.076700 0.000000 -0.000002 -0.000006 -8.728667 10.710559 -0.000009 -0.000000 -0.000000 -0.000001 -0.000679 9.278123 0.000000 -0.000000 -0.000000 8.207792 -6.751710 -1.599556 -0.074518 -0.000003 0.000081 -0.000002 -44.370014 0.346960 0.148822 0.000002 0.000000 -0.000001 -44.423664 -3.044403 -0.074314 0.000000 -0.000002 -0.000004 -8.728671 10.710558 0.000007 -0.000000 -0.000000 0.000000 -0.000680 9.278137 -0.000000 0.000000 -0.000001 
0.000006 104.270477 1.554256 0.000010 0.000003 -0.000113 -0.000005 10.181587 0.131522 0.000001 -0.000003 0.000084 -0.000000 9.893967 -1.470711 0.000001 0.000000 -0.000000 -0.000000 9.220802 -1.370642 0.000000 -0.000000 -0.000000 0.000001 16.740433 -2.049030 0.000000 -0.000000 -0.000000 0.000000 9.617859 1.685014 0.000000 0.000000 0.000000 0.000002 22.037384 7.501101 0.000000 -0.000000 0.000000 -4.569968 11.014880 -2.160881 0.000008 0.000001 -0.000038 -10.592780 -0.524844 -2.231737 36.991215 73.576205 -28.087276 -27.841467 0.000024 0.000598 14.641252 106.140183 -19.398412 -28.328829 0.000036 0.000026 -0.000322 -0.000044 0.000007 -2.464477 -1.573618 2.682226 -59.274615 -176.928442 -48.351841 -3.214925 -1.872387 1.924598 123.709124 12.509332 109.206365 -2.654501 -1.527704 1.513034 127.547076 -3.085573 140.957141 -2.018838 -1.152021 1.108065 0.000000 -0.000003 0.000000 -9.108388 -0.517738 2.260324 137.297744 32.465870 -73.467133 -3.700063 0.000078 0.001740 136.536083 41.990784 -87.777445 -2.850113 0.000139 -0.000034 139.405336 30.867025 -73.475453 -2.772170 0.000016 -0.000017 -0.000001 -0.000000 -0.000000 -9.532619 0.000153 0.000436 132.241574 24.523536 -52.617923 -3.700109 0.000098 0.004208 133.366233 33.749945 -70.059422 -2.950125 0.000151 -0.001591 135.076580 31.400804 -68.407063 -2.946632 0.000000 -0.000155 0.000002 0.000000 -0.000000 -9.103718 -0.042900 -1.864672 124.642100 33.390445 -59.436033 -3.379348 0.000087 -0.000534 145.680818 19.842003 -59.116790 -2.889771 0.000139 0.000882 143.716852 19.518242 -55.544516 -2.638805 -0.000001 0.000938 0.000000 -0.000002 -0.000001 -8.076826 -0.486476 -3.805947 89.420673 40.076770 -39.537233 -3.600077 0.000268 -0.003389 112.377253 14.264821 -20.600556 -2.100048 0.000225 -0.005304 118.662338 18.965781 -31.038500 -2.115768 -0.000055 -0.003687 0.000002 -0.000000 -0.000006 4.570446 11.014691 -2.160851 -0.000018 0.000010 -0.000021 10.592484 -0.524589 -2.232347 29.390601 -68.967630 20.423073 27.841801 -0.000023 -0.000136 196.118377 -81.589526 198.634960 28.328838 -0.000028 0.000027 0.000020 -0.000088 0.000000 2.466048 -1.576213 2.681878 -23.790167 138.303039 -28.833726 3.217507 -1.871993 1.916578 132.545627 17.033283 -165.247206 2.655649 -1.528611 1.514611 127.383315 -3.642361 -135.259971 2.020891 -1.154069 1.115142 0.000000 0.000000 0.000003 9.109447 -0.517837 2.259825 123.155114 -28.961252 50.996620 3.700111 0.000105 -0.000387 102.071481 -33.604247 40.970907 2.850117 0.000168 0.000235 92.579929 -24.903402 26.011073 2.774879 -0.000017 -0.000008 -0.000001 0.000003 0.000003 9.533503 0.000232 -0.000058 106.259514 -23.790724 31.363648 3.700093 0.000177 -0.000336 107.191698 -23.747685 31.826134 2.950096 0.000144 -0.000148 100.365129 -28.472193 33.856346 2.952864 -0.000029 0.000063 0.000005 0.000003 0.000001 9.104624 -0.042799 -1.865200 105.874776 -20.839954 27.371157 3.150052 0.000263 -0.000105 110.006562 -9.861682 14.052231 2.950035 0.000212 -0.000050 105.268166 -14.808024 19.317995 2.644324 0.000043 0.000066 -0.000002 -0.000001 0.000001 8.077876 -0.486664 -3.806403 100.996334 -19.573516 24.359719 3.599983 0.000301 0.014573 106.155927 -6.582304 9.378340 2.100062 0.000255 0.007551 103.612351 -8.633012 11.549036 2.125510 -0.000001 0.007517 0.000000 0.000000 0.000001 -8.207786 -6.751667 -1.599560 -0.077001 -0.000003 0.000080 -0.000002 -44.370110 0.345938 0.153719 -0.000000 -0.000000 0.000000 -44.423679 -3.043532 -0.076700 0.000000 -0.000002 -0.000006 -8.728667 10.710559 -0.000009 -0.000000 -0.000000 -0.000001 -0.000679 9.278123 0.000000 -0.000000 -0.000000 8.207792 -6.751710 -1.599556 -0.074518 -0.000003 0.000081 -0.000002 -44.370014 0.346960 0.148822 0.000002 0.000000 -0.000001 -44.423664 -3.044403 -0.074314 0.000000 -0.000002 -0.000004 -8.728671 10.710558 0.000007 -0.000000 -0.000000 0.000000 -0.000680 9.278137 -0.000000 0.000000 -0.000001 
0.000006 104.270477 1.554256 0.000010 0.000003 -0.000113 -0.000005 10.181587 0.131522 0.000001 -0.000003 0.000084 -0.000000 9.893967 -1.470711 0.000001 0.000000 -0.000000 -0.000000 9.220802 -1.370642 0.000000 -0.000000 -0.000000 0.000001 16.740433 -2.049030 0.000000 -0.000000 -0.000000 0.000000 9.617859 1.685014 0.000000 0.000000 0.000000 0.000002 22.037384 7.501101 0.000000 -0.000000 0.000000 -4.569968 11.014880 -2.160881 0.000008 0.000001 -0.000038 -10.592780 -0.524823 -2.231736 37.270416 73.947385 -28.489689 -27.841463 0.000030 0.000599 17.201732 106.232569 -22.792486 -28.328829 0.000022 0.000030 -0.000319 -0.000045 0.000007 -2.464499 -1.573633 2.682200 -60.895631 -180.025304 -57.200669 -3.215127 -1.872422 1.924581 131.600765 27.598607 66.937787 -2.654724 -1.527640 1.512981 129.126092 22.281173 89.831030 -2.018834 -1.152004 1.108056 -0.000002 -0.000000 0.000002 -9.108389 -0.517591 2.260196 115.160172 16.619372 -25.975730 -3.700079 0.000276 0.001599 113.296924 18.492573 -27.748506 -2.850088 0.000347 -0.000182 109.019183 14.618767 -20.394467 -2.772172 -0.000016 -0.000041 0.000001 -0.000001 0.000001 -9.532566 0.000263 0.000314 115.371089 10.897913 -17.365932 -3.700079 0.000309 0.004056 113.624978 13.279218 -20.035952 -2.950066 0.000341 -0.001702 109.984672 13.170620 -18.708865 -2.946632 0.000014 -0.000155 -0.000003 -0.000001 -0.000000 -9.103691 -0.042778 -1.864753 118.145129 13.768470 -22.714392 -3.379344 0.000292 -0.000698 114.109238 13.046150 -20.040591 -2.889786 0.000308 0.000748 113.460773 11.849261 -18.049294 -2.638816 -0.000032 0.000925 0.000001 -0.000000 -0.000000 -8.076749 -0.486381 -3.805947 105.429509 16.368079 -21.197842 -3.600060 0.000286 -0.003435 102.230638 9.892661 -11.802651 -2.100028 0.000287 -0.005432 101.603852 8.478479 -10.107449 -2.115777 -0.000041 -0.003679 0.000002 -0.000001 -0.000002 4.570446 11.014691 -2.160851 -0.000018 0.000010 -0.000021 10.592480 -0.524584 -2.232347 29.155223 -68.516059 20.088667 27.841789 -0.000026 -0.000139 194.907330 -81.883504 197.152604 28.328831 -0.000029 0.000021 0.000020 -0.000087 -0.000000 2.466160 -1.576166 2.681874 14.897344 137.902790 -80.560879 3.217486 -1.871969 1.916536 130.946447 14.071744 -160.796027 2.655696 -1.528506 1.514549 127.766789 -18.683089 -102.630989 2.020895 -1.154081 1.115146 0.000000 0.000003 0.000004 9.109430 -0.517817 2.259784 123.671858 -19.095206 34.857717 3.700095 0.000237 -0.000420 123.591604 -15.454123 28.429097 2.850079 0.000278 0.000282 124.848044 -12.326251 23.361752 2.774882 -0.000030 -0.000026 -0.000000 -0.000000 -0.000001 9.533507 0.000264 -0.000046 119.996042 -17.165722 29.282974 3.700072 0.000265 -0.000327 124.096723 -11.635022 21.732955 2.950093 0.000248 -0.000149 125.178434 -12.723906 24.273237 2.952874 -0.000031 0.000067 -0.000001 -0.000000 -0.000000 9.104624 -0.042747 -1.865163 124.441634 -14.559872 27.266629 3.150051 0.000309 -0.000042 126.717044 -6.781412 13.474559 2.950032 0.000293 -0.000036 128.855467 -6.633297 13.813720 2.644317 0.000017 0.000054 0.000000 0.000000 0.000000 8.077890 -0.486613 -3.806360 128.342984 -14.118518 29.892914 3.600025 0.000328 0.014639 130.427612 -7.648897 17.529199 2.100064 0.000340 0.007617 133.267427 -5.841793 14.529978 2.125497 -0.000005 0.007512 -0.000000 0.000000 0.000003 -8.207786 -6.751667 -1.599560 -0.077001 -0.000003 0.000080 -0.000002 -44.370110 0.345938 0.153719 -0.000000 -0.000000 0.000000 -44.423679 -3.043532 -0.076700 0.000000 -0.000002 -0.000006 -8.728667 10.710559 -0.000009 -0.000000 -0.000000 -0.000001 -0.000679 9.278123 0.000000 -0.000000 -0.000000 8.207792 -6.751710 -1.599556 -0.074518 -0.000003 0.000081 -0.000002 -44.370014 0.346960 0.148822 0.000002 0.000000 -0.000001 -44.423664 -3.044403 -0.074314 0.000000 -0.000002 -0.000004 -8.728671 10.710558 0.000007 -0.000000 -0.000000 0.000000 -0.000680 9.278137 -0.000000 0.000000 -0.000001 
